<svg width="88" height="28" viewBox="0 0 88 28" fill="none" xmlns="http://www.w3.org/2000/svg">
<g clip-path="url(#clip0_713_941)">
<mask id="mask0_713_941" style="mask-type:luminance" maskUnits="userSpaceOnUse" x="0" y="4" width="88" height="19">
<path d="M87.7746 4.66669H0.974609V22.7761H87.7746V4.66669Z" fill="white"/>
</mask>
<g mask="url(#mask0_713_941)">
<path d="M0.974609 11.0582C0.974609 7.18187 3.53911 4.66669 7.5141 4.66669C8.65827 4.66669 9.79257 4.87382 10.7098 5.22891V8.87839C9.92079 8.5529 9.01334 8.34576 8.12563 8.34576C5.89649 8.34576 5.23563 9.66749 5.18631 10.9103H8.78649V14.5105H5.08768V22.4209H0.974609V11.0582Z" fill="#C5CEC9"/>
<path fill-rule="evenodd" clip-rule="evenodd" d="M9.41797 15.8223C9.41797 11.5316 12.3573 8.86853 16.3914 8.86853C20.4257 8.86853 23.3649 11.5316 23.3649 15.8223C23.3649 20.1129 20.4257 22.7761 16.3914 22.7761C12.3573 22.7761 9.41797 20.1129 9.41797 15.8223ZM16.3914 19.0773C18.0386 19.0773 19.1828 17.7556 19.1828 15.8321C19.1828 13.9087 18.0386 12.587 16.3914 12.587C14.7443 12.587 13.6001 13.9087 13.6001 15.8321C13.6001 17.7556 14.7443 19.0773 16.3914 19.0773Z" fill="#C5CEC9"/>
<path fill-rule="evenodd" clip-rule="evenodd" d="M31.0975 8.86853C27.0634 8.86853 24.124 11.5316 24.124 15.8223C24.124 20.1129 27.0733 22.7761 31.0975 22.7761C35.1317 22.7761 38.071 20.1129 38.071 15.8223C38.071 11.5316 35.1317 8.86853 31.0975 8.86853ZM33.8889 15.8321C33.8889 17.7556 32.7448 19.0773 31.0975 19.0773C29.4504 19.0773 28.316 17.7556 28.3062 15.8321C28.3062 13.9087 29.4504 12.587 31.0975 12.587C32.7448 12.587 33.8889 13.9087 33.8889 15.8321Z" fill="#C5CEC9"/>
<path fill-rule="evenodd" clip-rule="evenodd" d="M38.8403 15.7236C38.8403 11.8965 41.2273 8.92767 44.3738 8.92767C46.3761 8.92767 48.0529 10.1212 48.5559 11.867V5.02173H52.669V16.0293C52.669 20.0636 49.9071 22.776 45.7941 22.776C41.6514 22.776 38.8403 19.9353 38.8403 15.7236ZM45.7842 19.0772C47.4315 19.0772 48.5461 17.785 48.5461 15.8321C48.5461 13.8791 47.4315 12.587 45.7842 12.587C44.1371 12.587 43.0225 13.8791 43.0225 15.8321C43.0225 17.7752 44.1371 19.0772 45.7842 19.0772Z" fill="#C5CEC9"/>
<path fill-rule="evenodd" clip-rule="evenodd" d="M60.4711 8.86853C56.4369 8.86853 53.4976 11.5316 53.4976 15.8223C53.4976 20.1129 56.4369 22.7761 60.4711 22.7761C64.5052 22.7761 67.4446 20.1129 67.4446 15.8223C67.4446 11.5316 64.5052 8.86853 60.4711 8.86853ZM63.2624 15.8321C63.2624 17.7556 62.1182 19.0773 60.4711 19.0773C58.8238 19.0773 57.6796 17.7556 57.6796 15.8321C57.6796 13.9087 58.8238 12.587 60.4711 12.587C62.1182 12.587 63.2624 13.9087 63.2624 15.8321Z" fill="#C5CEC9"/>
<path d="M74.0137 8.87836C74.5956 8.87836 75.1283 8.92767 75.6412 9.10522V12.7054C75.3847 12.6561 74.9803 12.6067 74.5759 12.6067C73.1852 12.6067 72.4158 13.3465 72.4158 14.7668V22.4308H68.3027V14.5203C68.3126 11.0286 70.4924 8.87836 74.0137 8.87836Z" fill="#C5CEC9"/>
<path fill-rule="evenodd" clip-rule="evenodd" d="M76.8543 12.7153C77.5447 12.587 78.5311 12.5081 79.2906 12.5081C81.934 12.5081 83.1472 13.3958 83.1472 15.0529V16.0688C82.5652 14.5795 81.3225 13.7904 79.5174 13.7904C76.7458 13.7904 75 15.5165 75 18.2585C75 21.0006 76.7557 22.7268 79.5174 22.7268C81.3225 22.7268 82.5652 21.9475 83.1472 20.4482V22.4308H87.2011V14.5696C87.2011 10.8905 84.7451 8.88824 79.8232 8.88824C78.8566 8.88824 77.6631 8.96715 76.8543 9.1151V12.7153ZM83.0979 18.16C83.0979 18.9983 82.3088 19.5803 81.1153 19.5803C79.9218 19.5803 79.1328 18.9983 79.1328 18.16C79.1328 17.3215 79.9218 16.7396 81.1153 16.7396C82.3088 16.7396 83.0979 17.3215 83.0979 18.16Z" fill="#C5CEC9"/>
</g>
</g>
<defs>
<clipPath id="clip0_713_941">
<rect width="86.8" height="28" fill="white" transform="translate(0.974609)"/>
</clipPath>
</defs>
</svg>
