<svg width="119" height="32" viewBox="0 0 119 32" fill="none" xmlns="http://www.w3.org/2000/svg">
<g clip-path="url(#clip0_713_939)">
<path d="M43.4441 23.9508H46.1559L45.7067 21.847V9.3046H43.1126V15.0252C42.3323 14.121 41.2591 13.5905 39.9918 13.5905C37.3974 13.5905 35.3887 15.7329 35.3887 18.8788C35.3887 22.0242 37.3974 24.167 39.9918 24.167C41.2792 24.167 42.3906 23.6164 43.1713 22.6724L43.4441 23.9508ZM94.7229 16.402C95.2497 16.402 95.7371 16.5391 96.1855 16.8533L97.4146 14.082C96.8485 13.7276 96.1855 13.5709 95.5422 13.5709C94.3718 13.5709 93.3966 14.1001 92.773 15.0847L92.4994 13.8055H89.8269L90.2561 15.7912V23.9491H92.8489V17.4822C93.2001 16.8135 93.8635 16.4012 94.7217 16.4012L94.7229 16.402ZM102.329 21.4342C100.828 21.4342 99.7158 20.432 99.7158 18.8783C99.7158 17.3058 100.828 16.3233 102.329 16.3233C103.851 16.3233 104.944 17.3058 104.944 18.8783C104.944 20.432 103.851 21.4342 102.329 21.4342ZM37.9044 18.8783C37.9044 17.3058 39.0162 16.3233 40.5178 16.3233C42.0398 16.3233 43.1319 17.3058 43.1319 18.8783C43.1319 20.432 42.0398 21.4342 40.5186 21.4342C39.0171 21.4342 37.9044 20.432 37.9044 18.8783ZM113.818 21.4342C112.317 21.4342 111.205 20.432 111.205 18.8783C111.205 17.3058 112.317 16.3233 113.818 16.3233C115.34 16.3233 116.432 17.3058 116.432 18.8783C116.432 20.432 115.34 21.4342 113.818 21.4342ZM52.4554 16.1657C53.8011 16.1657 54.679 16.7947 54.9518 17.9544H49.959C50.2515 16.7947 51.1295 16.1657 52.4554 16.1657ZM83.4873 16.1657C84.8337 16.1657 85.7117 16.7947 85.9845 17.9544H80.9917C81.2842 16.7947 82.1613 16.1657 83.4873 16.1657ZM70.8296 23.9508H75.0035L77.7153 13.8068H74.887L72.8981 22.0242L70.9084 13.8068H68.1186L70.8304 23.9503L70.8296 23.9508ZM64.1391 23.9508H66.7319V13.8063H64.1391V23.9508ZM52.853 24.1387C54.2971 24.1387 55.7207 23.7448 56.9104 22.9784L55.9159 20.7376C54.9793 21.2291 53.9459 21.5241 52.8923 21.5241C51.5274 21.5241 50.5715 20.9932 50.1617 20.0102H57.456C57.534 19.6369 57.5738 19.2636 57.5738 18.8111C57.5738 15.6656 55.4089 13.5622 52.5022 13.5622C49.5771 13.5622 47.4314 15.6853 47.4314 18.8504C47.4314 22.0742 49.5565 24.1387 52.853 24.1387ZM118.948 18.8783C118.948 15.7329 116.764 13.5901 113.818 13.5901C110.873 13.5901 108.688 15.7329 108.688 18.8783C108.688 22.0242 110.873 24.1665 113.818 24.1665C116.764 24.1665 118.948 22.0242 118.948 18.8783ZM83.8392 24.1665C85.2817 24.1665 86.7057 23.7735 87.8967 23.0068L86.901 20.7647C85.9648 21.2562 84.9309 21.5508 83.8774 21.5508C82.5125 21.5508 81.5566 21.0207 81.1467 20.0369H88.4419C88.5199 19.6636 88.5584 19.2902 88.5584 18.8381C88.5584 15.6927 86.3931 13.5893 83.4868 13.5893C80.5617 13.5893 78.4161 15.712 78.4161 18.8775C78.4161 22.1013 80.5424 24.1657 83.8388 24.1657L83.8392 24.1665ZM102.33 24.1665C105.275 24.1665 107.459 22.0242 107.459 18.8783C107.459 15.7329 105.275 13.5901 102.329 13.5901C99.3835 13.5901 97.1993 15.7329 97.1993 18.8783C97.1993 22.0242 99.3847 24.1665 102.33 24.1665ZM59.2238 23.9503H61.8175V9.30419H59.2234L59.2238 23.9503ZM65.4454 12.4098C66.3619 12.4098 67.0643 11.7017 67.0643 10.7581C67.0643 9.81455 66.3627 9.10686 65.4458 9.10686C64.5096 9.10686 63.8072 9.81455 63.8072 10.7581C63.8072 11.7017 64.51 12.4094 65.4462 12.4094L65.4454 12.4098ZM20.88 0.0721876L19.3949 14.1284L16.8616 2.27773L8.91898 3.95732L11.4511 15.8072L0 18.2277L2.02257 27.6935L22.1596 31.9495L26.7647 21.6636L28.9563 0.916906L20.8792 0.0717773L20.88 0.0721876ZM14.5169 20.4632C14.1018 20.8414 13.5528 20.8065 12.9703 20.6137C12.3889 20.4217 12.1305 19.7222 12.3508 18.8767C12.5149 18.249 13.2874 18.1547 13.6739 18.1481C13.8207 18.1456 13.9651 18.1752 14.0985 18.2351C14.3717 18.3581 14.8345 18.6207 14.9284 19.0211C15.0638 19.5988 14.9333 20.0837 14.5182 20.4619L14.5169 20.4632ZM20.3467 21.1155C20.0451 21.6365 19.2533 21.7054 18.4743 21.3263C17.9491 21.0703 17.9532 20.4189 18.0107 20.0217C18.0412 19.8051 18.129 19.6006 18.265 19.4293C18.4525 19.193 18.7656 18.8849 19.1274 18.8755C19.7157 18.8599 20.222 19.1224 20.5079 19.5975C20.7951 20.071 20.6515 20.5932 20.3491 21.1155H20.3467Z" fill="#C5CEC9"/>
</g>
<defs>
<clipPath id="clip0_713_939">
<rect width="118.974" height="32" fill="white"/>
</clipPath>
</defs>
</svg>
