<svg width="112" height="18" viewBox="0 0 112 18" fill="none" xmlns="http://www.w3.org/2000/svg">
<g clip-path="url(#clip0_713_953)">
<path d="M83.5956 11.1026C83.5956 8.91675 81.8283 7.1993 79.5982 7.1993C77.3995 7.1993 75.6007 8.91675 75.6007 11.1026C75.6007 13.2884 77.3995 15.0059 79.5982 15.0059C81.8283 15.0059 83.5956 13.2884 83.5956 11.1026ZM86.8567 4.71161V17.504H83.5325V16.3486C82.3753 17.2958 80.9131 17.8266 79.3246 17.8266C75.3903 17.8266 72.3186 14.8393 72.3186 11.1026C72.3186 7.37625 75.4008 4.37853 79.3246 4.37853C80.9131 4.37853 82.3753 4.90938 83.5325 5.85658V4.71161H86.8567ZM97.9023 14.5999H95.3987C94.6413 14.5999 94.1468 14.2773 94.1468 13.5903V7.60524H97.8918V4.71161H94.1468V1.06855H90.7911V4.71161H88.2663V7.61565H90.7911V14.4126C90.7911 16.13 92.0429 17.4936 94.2941 17.4936H97.8918V14.5999H97.9023ZM105.476 17.8266C109.316 17.8266 111.483 16.0467 111.483 13.5903C111.483 11.8416 110.2 10.5405 107.517 9.97844L104.677 9.41637C103.036 9.12492 102.51 8.82307 102.51 8.22977C102.51 7.45952 103.299 6.99113 104.761 6.99113C106.35 6.99113 107.507 7.40748 107.843 8.82307H111.168C110.989 6.15843 109.001 4.37853 104.982 4.37853C101.511 4.37853 99.07 5.77331 99.07 8.46917C99.07 10.3323 100.417 11.5502 103.309 12.1435L106.476 12.8513C107.728 13.0907 108.064 13.4133 108.064 13.9129C108.064 14.7144 107.118 15.214 105.592 15.214C103.678 15.214 102.573 14.7977 102.152 13.3821H98.7965C99.2909 16.0467 101.332 17.8266 105.476 17.8266ZM58.906 0.173401H71.4349V3.12948H62.2933V7.36584H71.193V10.2387H62.2933V14.5271H71.4349V17.4831H58.906V0.173401Z" fill="#C5CEC9"/>
<path d="M52.9517 7.09521V4.77407H52.0575C50.6374 4.77407 49.5854 5.41941 48.9543 6.42906V4.86774H46.4085V17.4727H48.9753V10.3115C48.9753 8.35467 50.1956 7.09521 51.8787 7.09521H52.9517ZM34.4792 10.0097C34.9421 8.08405 36.5411 6.79336 38.4451 6.79336C40.3492 6.79336 41.9587 8.07364 42.39 10.0097H34.4792ZM38.4977 4.62834C34.7107 4.62834 31.8283 7.61565 31.8283 11.1754C31.8283 14.933 34.8264 17.7538 38.7292 17.7538C41.0961 17.7538 43.0317 16.7441 44.3256 15.0579L42.4636 13.7256C41.4958 14.985 40.2229 15.5783 38.7186 15.5783C36.5306 15.5783 34.7738 14.0483 34.4161 11.9977H44.9778V11.1859C44.9883 7.41789 42.2427 4.62834 38.4977 4.62834ZM23.8123 15.5783C21.3191 15.5783 19.3309 13.6215 19.3309 11.2067C19.3309 8.76061 21.3402 6.835 23.8123 6.835C26.2529 6.835 28.2621 8.76061 28.2621 11.2067C28.2726 13.6215 26.2634 15.5783 23.8123 15.5783ZM16.8167 17.4831H19.3625V15.901C20.5302 17.0668 22.1923 17.7746 23.9911 17.7746C27.8098 17.7746 30.8079 14.8289 30.8079 11.1963C30.8079 7.54279 27.8098 4.59712 23.9911 4.59712C22.1818 4.59712 20.5512 5.31532 19.3835 6.47069V0.173401H16.8167V17.4831ZM7.78036 15.4534C10.2525 15.4534 12.1565 13.6007 12.1565 10.8528V0.173401H14.8285V17.4727H12.1776V15.8698C10.9783 17.0772 9.32675 17.7746 7.46477 17.7746C3.64614 17.7746 0.72168 15.0787 0.72168 10.9985V0.173401H3.40419V10.8528C3.40419 13.6527 5.28721 15.4534 7.78036 15.4534Z" fill="#C5CEC9"/>
</g>
<defs>
<clipPath id="clip0_713_953">
<rect width="110.667" height="18" fill="white" transform="translate(0.774414)"/>
</clipPath>
</defs>
</svg>
