<svg width="41" height="32" viewBox="0 0 41 32" fill="none" xmlns="http://www.w3.org/2000/svg">
<path d="M1.78375 17V6.504H3.11175V10.904H7.99175V6.504H9.33575V17H7.99175V12.056H3.11175V17H1.78375ZM15.1173 17.192C14.1679 17.192 13.3306 16.84 12.6053 16.136C11.8799 15.4213 11.5173 14.4187 11.5173 13.128C11.5173 11.8267 11.8799 10.8187 12.6053 10.104C13.3306 9.38933 14.1679 9.032 15.1173 9.032C16.0666 9.032 16.9039 9.38933 17.6293 10.104C18.3546 10.8187 18.7173 11.8267 18.7173 13.128C18.7173 14.4187 18.3546 15.4213 17.6293 16.136C16.9039 16.84 16.0666 17.192 15.1173 17.192ZM15.1173 16.104C15.7893 16.104 16.3279 15.832 16.7333 15.288C17.1493 14.7333 17.3573 14.0133 17.3573 13.128C17.3573 12.232 17.1493 11.5067 16.7333 10.952C16.3279 10.3973 15.7893 10.12 15.1173 10.12C14.4559 10.12 13.9173 10.3973 13.5013 10.952C13.0853 11.5067 12.8773 12.232 12.8773 13.128C12.8773 14.0133 13.0853 14.7333 13.5013 15.288C13.9173 15.832 14.4559 16.104 15.1173 16.104ZM20.7651 17V9.224H21.8531L21.9651 10.344H22.0131C22.3545 9.98133 22.7278 9.672 23.1331 9.416C23.5385 9.16 23.9705 9.032 24.4291 9.032C25.0158 9.032 25.4798 9.16533 25.8211 9.432C26.1625 9.69867 26.4131 10.0613 26.5731 10.52C26.9785 10.0827 27.3891 9.72533 27.8051 9.448C28.2211 9.17067 28.6638 9.032 29.1331 9.032C30.7118 9.032 31.5011 10.0453 31.5011 12.072V17H30.1891V12.248C30.1891 10.8613 29.7091 10.168 28.7491 10.168C28.1625 10.168 27.5118 10.568 26.7971 11.368V17H25.4851V12.248C25.4851 10.8613 24.9998 10.168 24.0291 10.168C23.4531 10.168 22.8025 10.568 22.0771 11.368V17H20.7651ZM37.1828 17.192C36.1481 17.192 35.2681 16.8347 34.5428 16.12C33.8174 15.3947 33.4548 14.3973 33.4548 13.128C33.4548 12.2747 33.6201 11.544 33.9508 10.936C34.2921 10.328 34.7241 9.85867 35.2468 9.528C35.7801 9.19733 36.3454 9.032 36.9427 9.032C37.9348 9.032 38.6974 9.36267 39.2308 10.024C39.7748 10.6853 40.0468 11.5707 40.0468 12.68C40.0468 12.9893 40.0308 13.24 39.9988 13.432H34.7508C34.8041 14.2533 35.0601 14.9093 35.5188 15.4C35.9881 15.8907 36.5961 16.136 37.3428 16.136C37.7161 16.136 38.0574 16.0827 38.3668 15.976C38.6868 15.8587 38.9908 15.7093 39.2788 15.528L39.7428 16.392C39.4121 16.6053 39.0334 16.792 38.6068 16.952C38.1801 17.112 37.7054 17.192 37.1828 17.192ZM34.7348 12.488H38.8948C38.8948 10.8773 38.2548 10.072 36.9748 10.072C36.4308 10.072 35.9401 10.2853 35.5028 10.712C35.0761 11.128 34.8201 11.72 34.7348 12.488Z" fill="#06C167"/>
<path d="M20.5 32C22.1569 32 23.5 30.6569 23.5 29C23.5 27.3431 22.1569 26 20.5 26C18.8431 26 17.5 27.3431 17.5 29C17.5 30.6569 18.8431 32 20.5 32Z" fill="#06C167"/>
</svg>
